<?xml version="1.0" encoding="utf-8"?>
<!-- Generator: Adobe Illustrator 21.1.0, SVG Export Plug-In . SVG Version: 6.00 Build 0)  -->
<svg version="1.1" id="Calque_2" xmlns="http://www.w3.org/2000/svg" xmlns:xlink="http://www.w3.org/1999/xlink" x="0px" y="0px"
	 viewBox="0 0 299.7 76.8" style="enable-background:new 0 0 299.7 76.8;" xml:space="preserve">
<style type="text/css">
	.st0{fill:#FFFFFF;}
</style>
<g>
	<g>
		<g>
			<path class="st0" d="M64.8,45L64.8,45c-0.1-0.2-0.3-0.4-0.4-0.6c1.3-3.5,2-7.3,2-11.3C66.4,15,51.8,0.3,33.7,0.3
				C15.6,0.3,0.9,15,0.9,33.1c0,17,13,31,29.5,32.6c0.1,0.2,0.2,0.4,0.3,0.5l0.5-0.3l-0.5,0.3c2.9,4.6,7.3,7.8,12.4,9
				c1.5,0.3,2.9,0.5,4.4,0.5c3.7,0,7.4-1.1,10.6-3.1c4.6-2.9,7.9-7.4,9.2-12.5C68.6,55,67.7,49.6,64.8,45z M59.1,36.2
				c2.2,0,4,1.8,4,4.1c0,0.7-0.2,1.3-0.5,1.9c-0.2,0.4-0.4,0.7-0.7,1c-0.7,0.8-1.7,1.2-2.9,1.2c-2.2,0-4-1.8-4-4.1
				c0-0.7,0.2-1.4,0.5-2c0.2-0.4,0.4-0.7,0.7-0.9C57,36.6,58,36.2,59.1,36.2z M28.9,54.4c0.4-5.8,3.6-11.4,9.1-14.8
				c3.5-2.2,7.5-3.2,11.4-2.9c-0.6,2.4-1.5,4.6-2.7,6.6c3.5,0.7,6.1,3.9,6.1,7.6c0,4.3-3.4,7.8-7.6,7.8c-3.9,0-7.1-3-7.6-6.8
				C34.9,53.2,32,54.1,28.9,54.4z M26.8,7.9c7.2,0,13.6,3.3,17.9,8.4c-0.1,1.2-0.3,2.3-0.6,3.5C42.7,25.7,39,30.7,33.8,34
				c-3.8,2.4-8,3.6-12,3.6c-7,0-13.7-3.4-18.1-9.8C5.4,16.6,15.1,7.9,26.8,7.9z M3.5,31.2c0-0.6,0-1.2,0.1-1.7
				c4.6,6,11.3,9.2,18.3,9.2c4.3,0,8.6-1.2,12.7-3.8c5.5-3.5,9.3-8.7,10.8-14.9c0.2-0.8,0.3-1.6,0.5-2.4c2.7,3.8,4.3,8.5,4.3,13.5
				c0,1.5-0.1,2.9-0.4,4.3c-4.2-0.4-8.5,0.7-12.3,3.1c-5.9,3.7-9.2,9.7-9.6,15.9c-0.3,0-0.6,0-0.9,0C13.9,54.5,3.5,44.1,3.5,31.2z
				 M66.2,59.9c-1.2,4.8-4.3,9-8.7,11.8c-4.3,2.7-9.4,3.6-14.2,2.5c-4.7-1.1-8.8-4.1-11.5-8.3c0.6,0,1.2,0.1,1.8,0.1
				c13.6,0,25.3-8.3,30.2-20.1C66.6,50,67.4,55.1,66.2,59.9z"/>
			<path class="st0" d="M45.1,57.5c3.6,0,6.5-3,6.5-6.6c0-3.3-2.4-6.1-5.6-6.6c-1.9,2.8-4.4,5.2-7.3,6.9
				C38.8,54.7,41.7,57.5,45.1,57.5z"/>
		</g>
		<path class="st0" d="M68.3,46.1c0,1.8,1.4,3.2,3.2,3.2c1.8,0,3.2-1.4,3.2-3.2c0-1.7-1.4-3.2-3.2-3.2
			C69.8,42.9,68.3,44.3,68.3,46.1"/>
	</g>
	<g>
		<path class="st0" d="M95.8,23.2h4.9l11.7,26.9h-6.7l-2.3-5.7H93l-2.2,5.7h-6.5L95.8,23.2z M98.1,31.1l-3.3,8.4h6.6L98.1,31.1z"/>
		<path class="st0" d="M115.4,23.2h18.1v5.5h-12.1v5.5h11.2v5.5h-11.2v10.5h-5.9V23.2z"/>
		<path class="st0" d="M138,23.2H156v5.5h-12.1v5.5h11.2v5.5h-11.2v10.5H138V23.2z"/>
		<path class="st0" d="M160.2,23.2h5.9v26.9h-5.9V23.2z"/>
		<path class="st0" d="M171.6,23.2h8.1l11.5,18.7h0.1V23.2h5.9v26.9h-7.8L177.6,31h-0.1v19.2h-5.9V23.2z"/>
		<path class="st0" d="M202.5,23.2h5.9v26.9h-5.9V23.2z"/>
		<path class="st0" d="M219.1,28.5h-7.7v-5.3h21.3v5.3H225v21.7h-5.9V28.5z"/>
		<path class="st0" d="M235.6,23.2h5.9v26.9h-5.9V23.2z"/>
		<path class="st0" d="M264.6,30.2c-1.2-1.4-2.9-2.2-5.1-2.2c-4.5,0-7.8,3.7-7.8,8.7s3.3,8.7,7.6,8.7c2.4,0,4.3-1.1,5.6-2.9l4.9,3.7
			c-2.2,3.2-6.1,4.7-9.7,4.7c-8.4,0-14.5-5.5-14.5-14.2s6.1-14.2,14.5-14.2c3,0,6.8,1,9.1,4L264.6,30.2z"/>
	</g>
</g>
</svg>
